<?xml version="1.0"?>
<svg width="29" height="29" xmlns="http://www.w3.org/2000/svg">
 <g >
  <title>Layer 1</title>
  <path d="m11,19.49l0,-9.65c0,-0.13 0.03,-0.24 0.1,-0.35c0.06,-0.1 0.15,-0.19 0.26,-0.24c0.11,-0.06 0.24,-0.09 0.36,-0.09c0.13,0.01 0.25,0.04 0.35,0.11l7.78,4.83c0.09,0.06 0.18,0.14 0.23,0.24c0.06,0.1 0.09,0.21 0.09,0.32c0,0.12 -0.03,0.23 -0.09,0.33c-0.05,0.09 -0.14,0.18 -0.23,0.24l-7.78,4.83c-0.1,0.06 -0.22,0.1 -0.35,0.1c-0.12,0.01 -0.25,-0.02 -0.36,-0.08c-0.11,-0.06 -0.2,-0.14 -0.26,-0.25c-0.07,-0.1 -0.1,-0.22 -0.1,-0.34l0,0z" fill="black" id="svg_2"/>
  <path d="m0,14.66c0,-8.1 6.57,-14.66 14.67,-14.66c8.1,0 14.66,6.56 14.66,14.66c0,8.1 -6.56,14.67 -14.66,14.67c-8.1,0 -14.67,-6.57 -14.67,-14.67zm14.67,-12.66c-3.36,0 -6.58,1.33 -8.96,3.71c-2.38,2.37 -3.71,5.59 -3.71,8.95c0,3.36 1.33,6.58 3.71,8.96c2.38,2.38 5.6,3.71 8.96,3.71c3.36,0 6.58,-1.33 8.95,-3.71c2.38,-2.38 3.71,-5.6 3.71,-8.96c0,-3.36 -1.33,-6.58 -3.71,-8.95c-2.37,-2.38 -5.59,-3.71 -8.95,-3.71z" fill="black" id="svg_3"/>
 </g>
</svg>