<?xml version="1.0"?>
<svg width="30" height="37" xmlns="http://www.w3.org/2000/svg" xmlns:svg="http://www.w3.org/2000/svg">
 <g class="layer">
  <title>Layer 1</title>
  <path d="m16.96,9.17c0,0.48 -0.19,0.95 -0.54,1.29c-0.34,0.35 -0.81,0.54 -1.29,0.54c-0.49,0 -0.96,-0.19 -1.3,-0.54c-0.35,-0.34 -0.54,-0.81 -0.54,-1.29c0,-0.49 0.19,-0.96 0.54,-1.3c0.34,-0.34 0.81,-0.54 1.3,-0.54c0.48,0 0.95,0.2 1.29,0.54c0.35,0.34 0.54,0.81 0.54,1.3zm-3.21,5.04l0,9.17c0,0.36 0.14,0.71 0.4,0.97c0.26,0.26 0.61,0.4 0.98,0.4c0.36,0 0.71,-0.14 0.97,-0.4c0.26,-0.26 0.4,-0.61 0.4,-0.97l0,-9.17c0,-0.37 -0.14,-0.72 -0.4,-0.97c-0.26,-0.26 -0.61,-0.41 -0.97,-0.41c-0.37,0 -0.72,0.15 -0.98,0.41c-0.26,0.25 -0.4,0.6 -0.4,0.97zm-13.75,-9.63c0,-1.21 0.48,-2.38 1.34,-3.24c0.86,-0.86 2.03,-1.34 3.24,-1.34l21.09,0c0.6,0 1.19,0.12 1.75,0.35c0.56,0.23 1.06,0.57 1.49,0.99c0.42,0.43 0.76,0.93 0.99,1.49c0.23,0.56 0.35,1.15 0.35,1.75l0,26.13c0,0.36 -0.14,0.71 -0.4,0.97c-0.26,0.26 -0.61,0.4 -0.97,0.4l-26.13,0c0,0.49 0.19,0.96 0.54,1.3c0.34,0.34 0.81,0.54 1.29,0.54l24.3,0c0.36,0 0.71,0.14 0.97,0.4c0.26,0.26 0.4,0.61 0.4,0.97c0,0.37 -0.14,0.72 -0.4,0.97c-0.26,0.26 -0.61,0.41 -0.97,0.41l-24.3,0c-1.21,0 -2.38,-0.49 -3.24,-1.35c-0.86,-0.86 -1.34,-2.02 -1.34,-3.24l0,-27.5zm27.5,24.75l0,-24.75c0,-0.48 -0.19,-0.95 -0.54,-1.29c-0.34,-0.35 -0.81,-0.54 -1.29,-0.54l-21.09,0c-0.48,0 -0.95,0.19 -1.29,0.54c-0.35,0.34 -0.54,0.81 -0.54,1.29l0,24.75l24.75,0z" fill="black" id="svg_1"/>
 </g>
</svg>