<svg xmlns="http://www.w3.org/2000/svg" viewBox="0 0 37 37"><g id="Слой_2" data-name="Слой 2"><g id="svg_2"><path id="svg_2-2" data-name="svg 2" d="M14,24.48v-12a.76.76,0,0,1,.13-.44.78.78,0,0,1,.32-.3,1,1,0,0,1,.45-.11.79.79,0,0,1,.43.14l9.65,6a.84.84,0,0,1,.29.3.79.79,0,0,1,.11.39.81.81,0,0,1-.11.41,1,1,0,0,1-.29.3l-9.65,6a.78.78,0,0,1-.43.13.9.9,0,0,1-.45-.1.8.8,0,0,1-.32-.31.75.75,0,0,1-.13-.43Z"/><path d="M18.5,3.5a15,15,0,1,1-15,15,15,15,0,0,1,15-15m0-3.5A18.5,18.5,0,1,0,37,18.5,18.5,18.5,0,0,0,18.5,0Z"/></g></g></svg>