<?xml version="1.0" encoding="utf-8"?>
<!-- Generator: Adobe Illustrator 24.2.3, SVG Export Plug-In . SVG Version: 6.00 Build 0)  -->
<svg width={96}
    viewBox="0 0 24 24"
    fill="none"
    xmlns="http://www.w3.org/2000/svg">
<style type="text/css">
	.st0{opacity:0.941;enable-background:new    ;}
	.st1{opacity:0.932;enable-background:new    ;}
	.st2{opacity:0.915;fill-rule:evenodd;clip-rule:evenodd;enable-background:new    ;}
	.st3{opacity:0.911;fill-rule:evenodd;clip-rule:evenodd;enable-background:new    ;}
</style>
<g>
	<g class="st0">
		<path d="M270.5-0.5c-9.7,0-19.3,0-29,0c-24.8,4.5-45.6,16.1-62.5,35c-26.9,36.9-29.6,75.6-8,116c6.4,7.8,12.1,16.1,17,25
			c5,12.2,7.6,24.8,8,38c2.2,5.7,6.1,10.1,11.5,13c1,12.3,1.3,24.6,1,37c-3.8,0-7.5-0.1-11.3-0.1c-11.2,0-22.5,0.2-33.7,0.6
			c-1.4,0.5-2.6,1.3-3.5,2.5c-2.6,4.9-1.8,9.1,2.5,12.5c15.7,0.4,31.4,0.6,47.1,0.6c26.3,0,52.6-0.5,78.9-1.6
			c5.9-2.9,10.1-7.4,12.5-13.5c0.5-12,0.7-24,0.5-36c15.1,0,30.2-0.1,45.3-0.1c45.2,0,90.5,0.2,135.7,0.6c2.3,1.1,3.8,2.9,4.5,5.5
			c0.7,63.3,0.7,126.7,0,190c-0.8,2.4-2.3,4.3-4.5,5.5c-7.2,0.4-14.5,0.6-21.8,0.6c-2.4,0-4.8,0-7.2-0.1
			c0.9-19.2-6.9-28.8-23.3-28.8c-2.7,0-5.6,0.3-8.7,0.8c0.4-9.7-0.1-19.4-1.5-29c-3-5.3-7.5-8.8-13.5-10.5
			c-15.1-0.4-30.1-0.6-45.2-0.6c-25.3,0-50.6,0.5-75.8,1.6c-4.4,5.4-3.8,10.1,2,14c38.7,0.3,77.3,0.7,116,1c0.5,0.5,1,1,1.5,1.5
			c0.7,38,0.7,76,0,114c-0.8,0.6-1.6,1.1-2.5,1.5c-34.7,0.4-69.5,0.6-104.2,0.6c-11.6,0-23.2,0-34.8-0.1c0.2-43,0-86-0.5-129
			c-0.5-1.4-1.3-2.6-2.5-3.5c-32.5-1-65.1-1.6-97.7-1.6c-19.4,0-38.9,0.2-58.3,0.6c-7.3,1.3-12.1,5.5-14.5,12.5
			c-0.5,9-0.7,18-0.5,27c-3.1-0.5-6.1-0.8-8.7-0.8c-16.4,0-24.1,9.6-23.3,28.8c-2.4,0-4.8,0.1-7.2,0.1c-7.3,0-14.5-0.2-21.8-0.6
			c-2.2-1.2-3.7-3.1-4.5-5.5c-1-47.1-0.7-94.1,1-141c1.2-1.5,2.7-2.7,4.5-3.5c35-0.3,70-0.7,105-1c6.9-5.4,6.6-10.4-1-15
			c-17.7-0.3-35.3-0.5-53-0.5s-35.3,0.2-53,0.5c-8.9,1.9-15,7-18.5,15.5c-1.1,25.1-1.6,50.3-1.5,75.5c-0.1,25.2,0.4,50.4,1.5,75.5
			c2.6,8.2,8.1,13.4,16.5,15.5c8,0.4,16,0.6,24,0.6c2.7,0,5.3,0,8-0.1c-0.8,19.2,6.9,28.8,23.2,28.8c2.7,0,5.6-0.3,8.8-0.8
			c-0.2,8,0,16,0.5,24c2.3,5.8,6.1,10.1,11.5,13c102.3,0,204.7,0,307,0c4.8-2,8.7-5.3,11.5-10c1.4-8.9,1.9-17.9,1.5-27
			c3.2,0.5,6.1,0.8,8.8,0.8c16.3,0,24-9.6,23.2-28.8c2.7,0,5.3,0.1,8,0.1c8,0,16-0.2,24-0.6c8.4-2.1,13.9-7.3,16.5-15.5
			c1.6-65.6,2-131.3,1-197c-1.2-10.8-7-17.7-17.5-20.5c-42.2-0.4-84.5-0.6-126.7-0.6c-14.1,0-28.2,0-42.3,0.1
			c-1.4-15.3,1.8-29.7,9.5-43c24.3-27.3,33-59,26-95C339.6,33.3,312.4,8.3,270.5-0.5L270.5-0.5z M264.8,216.8
			c-17.1,0-34.3-0.5-51.3-1.5c-1.4-1.2-2.2-2.7-2.5-4.5c-0.1-16.1-4.1-35.4-12-49.3c-9-11-16.3-23-22-36
			c-10.7-38-0.8-69.5,29.5-94.5c14.6-10,30.6-15.5,48-16.5c32.9,1.9,57.8,16.9,74.5,45c12.9,26.5,12.5,52.8-1,79
			c-7.5,9.5-14.1,19.5-20,30c-5.5,13.1-8.5,31.1-9,45.3c-0.9,1.2-2.1,2-3.5,2.5C285.3,216.7,275,216.8,264.8,216.8L264.8,216.8z
			 M260.1,266.1c-16.5,0-33.2-0.3-33.2-0.3l-2.5-2.5c0-10.4-0.3-24.1,0.1-34.8c20.3,0,40.7,0,61,0c0.2,10.7,0,24.1-0.5,34.8
			c-0.8,0.8-1.7,1.7-2.5,2.5C276.5,266,268.3,266.1,260.1,266.1L260.1,266.1z M212.6,496.7c-35.4,0-70.8-0.6-106.1-1.7
			c-1.2-38.1-1.3-76.3-0.5-114.5c0.7-0.5,1.2-1.2,1.5-2c46.7,0,93.3,0,140,0c0,39.3,0,78.7,0,118
			C235.8,496.6,224.2,496.7,212.6,496.7L212.6,496.7z M425,458.6c-1.2,0-2.3,0-3.5-0.1c0-13.3,0-26.7,0-40c1.2-0.1,2.3-0.1,3.5-0.1
			c3.7,0,7.4,0.4,11,1.1c1.1,6.2,1.6,12.6,1.5,19c0.1,6.4-0.4,12.8-1.5,19C432.4,458.2,428.7,458.6,425,458.6L425,458.6z M86,458.6
			c-3.5,0-7-0.2-10.5-0.6c-0.5-0.5-1-1-1.5-1.5c-0.7-11.7-0.7-23.3,0-35c0.5-1,1-2,1.5-3c4.7,0,9.3,0,14,0c0,13.3,0,26.7,0,40
			C88.3,458.5,87.2,458.6,86,458.6L86,458.6z"/>
	</g>
</g>
<g>
	<g class="st1">
		<path d="M256.6,37.2c-1,0-2,0.1-3.1,0.3c-3.3,1.4-5.8,3.8-7.5,7c-13.1,23.8-26.4,47.5-40,71c-2.8,8.6-0.3,15.1,7.5,19.5
			c7.1,1.1,14.3,1.6,21.6,1.6c2.1,0,4.3,0,6.4-0.1c-0.2,17,0,34,0.5,51c0.8,2.1,2,3.9,3.5,5.5c2.8,1.6,5.5,2.4,7.9,2.4
			c3.9,0,7.4-2,10.6-5.9c12.4-22.5,25.1-44.8,38-67c2.2-3.6,3.7-7.4,4.5-11.5c-0.7-5.7-3.3-10-8-13c-7.4-1.1-14.8-1.6-22.3-1.6
			c-2.2,0-4.4,0-6.7,0.1c0.2-17,0-34-0.5-51C266.4,40,262.2,37.2,256.6,37.2L256.6,37.2z M258,167.5c0-14.7-0.7-29.4-2-44
			c-0.9-1.2-2.1-2-3.5-2.5c-10-0.2-20-0.7-30-1.5c10.5-17.8,20.5-35.8,30-54c0.6,14.6,1.4,29.2,2.5,44c0.9,1.2,2.1,2,3.5,2.5
			c10,0.3,20,0.7,30,1C278.2,131.1,268,149.3,258,167.5L258,167.5z"/>
	</g>
</g>
<g>
	<path class="st2" d="M147.5,415.5c9.3-0.1,13,4.6,11,14c3.8-0.3,7.5,0.2,11,1.5c3.9,4.3,3.9,8.6,0,13c-3.6,1.2-7.2,1.7-11,1.5
		c1.9,7.2-0.6,11.9-7.5,14c-7.1-1.9-9.9-6.5-8.5-14c-7.2,1.4-11.9-1.3-14-8c0.3-2.5,1.3-4.7,3-6.5c3.5-1.3,7.2-1.8,11-1.5
		C141.3,423.6,143,418.9,147.5,415.5z"/>
</g>
<g>
	<path class="st3" d="M343.5,429.5c11.3-0.2,22.7,0,34,0.5c6.8,5.4,6.5,10.4-1,15c-11,0.7-22,0.7-33,0c-5-3-6.2-7.2-3.5-12.5
		C341.1,431.4,342.3,430.4,343.5,429.5z"/>
</g>
</svg>
