<?xml version="1.0" encoding="UTF-8"?>
<!DOCTYPE svg PUBLIC "-//W3C//DTD SVG 1.1//EN" "http://www.w3.org/Graphics/SVG/1.1/DTD/svg11.dtd">
<svg xmlns="http://www.w3.org/2000/svg" version="1.1" width="512px" height="512px" style="shape-rendering:geometricPrecision; text-rendering:geometricPrecision; image-rendering:optimizeQuality; fill-rule:evenodd; clip-rule:evenodd" xmlns:xlink="http://www.w3.org/1999/xlink">
<g><path style="opacity:0.933" fill="#000000" d="M 274.5,-0.5 C 278.5,-0.5 282.5,-0.5 286.5,-0.5C 294.05,2.74396 297.717,8.5773 297.5,17C 289.453,82.8774 281.119,148.711 272.5,214.5C 304.216,214.03 335.883,214.53 367.5,216C 379.591,221.68 384.758,231.18 383,244.5C 337.386,332.395 290.719,419.728 243,506.5C 240.674,508.066 238.508,509.732 236.5,511.5C 232.5,511.5 228.5,511.5 224.5,511.5C 216.95,508.256 213.283,502.423 213.5,494C 221.547,428.123 229.881,362.289 238.5,296.5C 206.784,296.97 175.117,296.47 143.5,295C 131.409,289.32 126.242,279.82 128,266.5C 129.443,261.611 131.443,256.945 134,252.5C 178.254,170.993 222.254,89.326 266,7.5C 268.157,4.02414 270.99,1.35748 274.5,-0.5 Z M 278.5,21.5 C 279.097,21.7352 279.43,22.2352 279.5,23C 270.135,90.7564 261.635,158.59 254,226.5C 255.26,229.428 257.427,231.261 260.5,232C 294.167,232.333 327.833,232.667 361.5,233C 364.217,234.259 365.55,236.426 365.5,239.5C 321.803,323.225 277.303,406.559 232,489.5C 240.741,421.238 249.074,352.904 257,284.5C 255.74,281.572 253.573,279.739 250.5,279C 216.833,278.667 183.167,278.333 149.5,278C 146.783,276.741 145.45,274.574 145.5,271.5C 146.099,268.298 147.266,265.298 149,262.5C 192.7,182.431 235.867,102.098 278.5,21.5 Z"/></g>
</svg>
