<?xml version="1.0" encoding="UTF-8"?>
<!DOCTYPE svg PUBLIC "-//W3C//DTD SVG 1.1//EN" "http://www.w3.org/Graphics/SVG/1.1/DTD/svg11.dtd">
<svg width={96}
    viewBox="0 0 24 24"
    fill="none"
    xmlns="http://www.w3.org/2000/svg" style="shape-rendering:geometricPrecision; text-rendering:geometricPrecision; image-rendering:optimizeQuality; fill-rule:evenodd; clip-rule:evenodd">
<g><path style="opacity:0.935" fill="#000000" d="M 236.5,-0.5 C 249.167,-0.5 261.833,-0.5 274.5,-0.5C 315.027,4.34734 350.193,20.6807 380,48.5C 383.215,57.5799 380.048,61.7466 370.5,61C 316.314,13.8573 255.647,3.19064 188.5,29C 124.578,59.8083 91.2443,110.808 88.5,182C 89.8038,231.596 108.471,273.262 144.5,307C 167.041,322.917 177.708,344.75 176.5,372.5C 200.167,372.5 223.833,372.5 247.5,372.5C 247.667,346.165 247.5,319.831 247,293.5C 214.264,276.882 181.764,259.882 149.5,242.5C 149,241.5 148.5,240.5 148,239.5C 147.833,231.833 147.667,224.167 147.5,216.5C 147.362,208.069 147.862,199.735 149,191.5C 154.441,187.074 159.108,187.741 163,193.5C 163.167,206.513 163.667,219.513 164.5,232.5C 194.99,247.911 225.324,263.578 255.5,279.5C 285.99,264.089 316.324,248.422 346.5,232.5C 347.333,218.846 347.833,205.179 348,191.5C 351.013,186.465 355.18,185.298 360.5,188C 361.701,188.903 362.535,190.069 363,191.5C 363.667,207.833 363.667,224.167 363,240.5C 362.308,241.025 361.808,241.692 361.5,242.5C 329.236,259.882 296.736,276.882 264,293.5C 263.5,319.831 263.333,346.165 263.5,372.5C 287.167,372.5 310.833,372.5 334.5,372.5C 333.219,352.938 338.719,335.605 351,320.5C 408.802,275.114 431.135,216.114 418,143.5C 412.879,121.442 403.546,101.442 390,83.5C 388.885,75.282 392.385,71.782 400.5,73C 402.286,73.7845 403.786,74.9512 405,76.5C 441.228,131.308 447.895,189.641 425,251.5C 411.553,283.709 390.887,310.375 363,331.5C 356.287,339.628 352.287,348.961 351,359.5C 350.667,392.833 350.333,426.167 350,459.5C 347.417,469.085 341.584,475.918 332.5,480C 323.241,481.251 313.908,481.918 304.5,482C 301.24,490.111 297.407,497.945 293,505.5C 290.363,507.891 287.53,509.891 284.5,511.5C 265.167,511.5 245.833,511.5 226.5,511.5C 223.569,509.752 220.736,507.752 218,505.5C 214.039,497.744 210.205,489.91 206.5,482C 197.092,481.918 187.759,481.251 178.5,480C 168.969,475.806 163.136,468.639 161,458.5C 160.667,425.167 160.333,391.833 160,358.5C 158.439,348.382 154.439,339.382 148,331.5C 78.1331,274.398 57.1331,202.731 85,116.5C 113.29,48.7071 163.79,9.70708 236.5,-0.5 Z M 176.5,388.5 C 229.167,388.5 281.833,388.5 334.5,388.5C 334.5,393.167 334.5,397.833 334.5,402.5C 297.832,402.333 261.165,402.5 224.5,403C 216.973,407.661 216.639,412.661 223.5,418C 260.498,418.5 297.498,418.667 334.5,418.5C 334.5,423.167 334.5,427.833 334.5,432.5C 281.833,432.5 229.167,432.5 176.5,432.5C 176.5,427.833 176.5,423.167 176.5,418.5C 182.509,418.666 188.509,418.499 194.5,418C 201.401,412.58 201.067,407.58 193.5,403C 187.843,402.501 182.176,402.334 176.5,402.5C 176.5,397.833 176.5,393.167 176.5,388.5 Z M 176.5,448.5 C 229.167,448.5 281.833,448.5 334.5,448.5C 335.435,455.796 332.768,461.296 326.5,465C 302.873,466.141 279.206,466.641 255.5,466.5C 231.794,466.641 208.127,466.141 184.5,465C 178.232,461.296 175.565,455.796 176.5,448.5 Z M 224.5,481.5 C 245.177,481.167 265.844,481.5 286.5,482.5C 284.356,486.621 282.356,490.788 280.5,495C 272.239,496.121 263.906,496.621 255.5,496.5C 247.633,496.477 239.8,496.144 232,495.5C 228.725,491.285 226.225,486.618 224.5,481.5 Z"/></g>
<g><path style="opacity:0.925" fill="#000000" d="M 249.5,106.5 C 257.815,104.745 264.648,107.079 270,113.5C 275,122.5 280,131.5 285,140.5C 288.725,132.817 293.725,131.817 300,137.5C 301.301,139.365 301.635,141.365 301,143.5C 298.693,151.272 295.526,158.606 291.5,165.5C 289.941,166.447 288.274,167.113 286.5,167.5C 279.521,166.535 272.521,165.702 265.5,165C 257.589,161.445 256.589,156.445 262.5,150C 265.5,149.667 268.5,149.333 271.5,149C 266.278,140.048 260.945,131.214 255.5,122.5C 251.958,128.418 248.292,134.251 244.5,140C 235.406,143.235 231.239,140.068 232,130.5C 235.333,124.5 238.667,118.5 242,112.5C 244.114,109.879 246.614,107.879 249.5,106.5 Z"/></g>
<g><path style="opacity:0.924" fill="#000000" d="M 222.5,146.5 C 225.518,146.335 228.518,146.502 231.5,147C 235.905,152.974 239.405,159.474 242,166.5C 245.05,176.119 241.55,180.285 231.5,179C 229.649,177.316 227.982,175.483 226.5,173.5C 221.248,181.668 216.248,190.001 211.5,198.5C 218.581,199.071 225.581,199.905 232.5,201C 235.394,203.909 236.227,207.409 235,211.5C 234.5,213.333 233.333,214.5 231.5,215C 223.5,215.667 215.5,215.667 207.5,215C 197.1,210.359 193.6,202.526 197,191.5C 201.7,183.628 206.2,175.628 210.5,167.5C 201.247,165.205 198.914,160.039 203.5,152C 209.9,149.988 216.233,148.154 222.5,146.5 Z"/></g>
<g><path style="opacity:0.923" fill="#000000" d="M 294.5,173.5 C 297.978,173.184 301.312,173.684 304.5,175C 308.127,181.085 311.627,187.252 315,193.5C 316.78,203.779 312.946,210.946 303.5,215C 292.167,215.333 280.833,215.667 269.5,216C 275.445,223.324 274.112,228.824 265.5,232.5C 263.885,231.846 262.218,231.346 260.5,231C 255.63,224.761 251.13,218.261 247,211.5C 246.333,208.833 246.333,206.167 247,203.5C 251,198.167 255,192.833 259,187.5C 264.775,181.975 269.775,182.642 274,189.5C 274.619,193.308 273.453,196.474 270.5,199C 280.184,199.832 289.851,199.665 299.5,198.5C 296.094,192.855 293.094,187.021 290.5,181C 290.994,177.992 292.327,175.492 294.5,173.5 Z"/></g>
</svg>
